<?xml version="1.0" encoding="utf-8"?>
<!-- Svg Vector Icons : http://www.onlinewebfonts.com/icon -->
<!DOCTYPE svg PUBLIC "-//W3C//DTD SVG 1.1//EN" "http://www.w3.org/Graphics/SVG/1.1/DTD/svg11.dtd">
<svg version="1.1" xmlns="http://www.w3.org/2000/svg" xmlns:xlink="http://www.w3.org/1999/xlink" x="0px" y="0px" viewBox="0 0 1000 1000" enable-background="new 0 0 1000 1000" xml:space="preserve">
<metadata> Svg Vector Icons : http://www.onlinewebfonts.com/icon </metadata>
<g><path d="M714.8,545.8c-40.5,0-78.4,10.9-111.2,29.9c-48.1,27.9-84.8,73.3-101.3,127.4l0,0c-6.3,20.5-9.6,42.3-9.6,64.8c0,122.5,99.6,222.1,222.1,222.1c122.5,0,222.1-99.6,222.1-222.1C936.9,645.4,837.2,545.8,714.8,545.8z M714.8,955.7c-103.6,0-187.9-84.3-187.9-187.8c0-22.8,4.1-44.6,11.5-64.8l0,0c23.6-64.1,81.3-111.9,151-121.3c-2.7-3.7-7-6.1-12-6.1c4.9,0,9.3,2.4,12,6.1c8.3-1.1,16.7-1.7,25.3-1.7c103.6,0,187.8,84.3,187.8,187.8C902.6,871.5,818.4,955.7,714.8,955.7z"/><path d="M825.7,742h-82.1v-85.9c0-7.5-6.1-13.6-13.6-13.6h-27.1c-4.2,0-8,2-10.5,5v40.7c0,3.4-1.1,6.5-3.1,9V742h-82.1c-7.5,0-13.6,6.1-13.6,13.6V781c0,7.5,6.1,13.6,13.6,13.6h82.1v86.8c0,7.5,6.1,13.6,13.6,13.6H730c7.5,0,13.6-6.1,13.6-13.6v-86.8h82.1c7.5,0,13.6-6.1,13.6-13.6v-25.4C839.2,748.1,833.2,742,825.7,742z"/><path d="M692.3,647.5c-1.9,2.3-3,5.3-3,8.6v41.2c1.9-2.5,3-5.6,3-9V647.5z"/><path d="M562.3,423.1c-13.6-9.8-34.1-7.1-44.4,5.8L365.2,618.2L315,561.9c-11-12.2-31.7-13.9-44.6-3.6c-6.7,5.4-10.8,13-11.5,21.4c-0.7,8.4,2,16.5,7.7,22.8l75.7,84.8c6.1,6.8,14.9,10.7,24.2,10.7c0.1,0,0.7,0,0.8,0c9.6-0.2,18.5-4.5,24.5-11.9L568.4,467c5.3-6.6,7.6-14.8,6.5-23.1C573.8,435.5,569.3,428.1,562.3,423.1z"/><path d="M128.5,874.3V155.5h49.1c1.6-24.8,11.3-47.5,26.5-65.3H95.8c-18,0-32.7,14.7-32.7,32.7v784.1c0,18.1,14.6,32.7,32.7,32.7h396.9c-11.1-20.4-19.9-42.3-25.8-65.3H128.5z"/><path d="M689.4,155.5v364.8c18-3.5,36.6-5.4,55.6-5.4c3.3,0,6.5,0.1,9.8,0.2V122.9c0-18-14.6-32.7-32.7-32.7H613.8c15.2,17.9,24.8,40.5,26.5,65.3H689.4z"/><path d="M290,240.4h237.9c40.5,0,73.5-33,73.5-73.5v-4c0-2.5-0.1-5-0.4-7.4c-3.4-33.8-29.8-60.8-63.3-65.3c-3.2-0.4-6.5-0.7-9.8-0.7H496v-5.9C496,43,463,10,422.5,10h-27.1c-40.5,0-73.5,33-73.5,73.5v5.9H290c-3.3,0-6.6,0.3-9.8,0.7c-33.5,4.5-59.9,31.5-63.3,65.3c-0.2,2.4-0.4,5-0.4,7.4v4C216.4,207.4,249.4,240.4,290,240.4z"/></g>
</svg>